<?xml version="1.0" encoding="utf-8"?>
<!-- Generator: Adobe Illustrator 25.2.3, SVG Export Plug-In . SVG Version: 6.00 Build 0)  -->
<svg version="1.1" id="Layer_1" xmlns="http://www.w3.org/2000/svg" xmlns:xlink="http://www.w3.org/1999/xlink" x="0px" y="0px"
	 viewBox="0 0 300 300" style="enable-background:new 0 0 300 300;" xml:space="preserve">
<style type="text/css">
	.st0{fill:#EA5254;}
	.st1{fill:none;stroke:#EA5254;stroke-width:13;stroke-miterlimit:10;}
</style>
<g>
	<path class="st0" d="M131.78,186.95c1.1,2.35,1.66,4.96,1.93,7.59c0.27,2.63,0.24,5.32-0.08,7.98c-0.35,2.68-0.83,5.16-1.24,7.71
		c-0.41,2.53-0.8,5.02-0.94,7.43c-0.15,2.41-0.08,4.72,0.26,7.03c0.09,0.58,0.19,1.16,0.3,1.73l0.18,0.87l0.09,0.43l0.09,0.26
		c0.23,0.69,0.6,1.22,1.11,1.72c0.99,0.99,2.71,1.81,4.69,2.32c0.98,0.26,2.04,0.44,3.11,0.57c0.53,0.08,1.07,0.12,1.61,0.18
		l0.79,0.08l0.66,0.06l0.38,0.03l0.16,0.02c0.5,0.08,1.25,0.18,1.91,0.26c0.68,0.09,1.38,0.15,2.07,0.2c0.7,0.04,1.4,0.07,2.09,0.09
		c0.7-0.01,1.4,0,2.09-0.03c2.78-0.09,5.55-0.39,8.17-0.99c2.62-0.59,5.1-1.46,7.32-2.63l1.61-0.93l1.46-1.08
		c0.11-0.09,0.27-0.18,0.35-0.26l0.23-0.23c0.16-0.15,0.33-0.28,0.46-0.47c0.14-0.18,0.3-0.33,0.43-0.52
		c0.12-0.2,0.25-0.39,0.39-0.59c0.48-0.84,0.88-1.83,1.18-2.93c0.3-1.11,0.46-2.35,0.57-3.61c0.18-2.56,0.01-5.32-0.38-8.09
		c-0.39-2.78-0.99-5.59-1.74-8.38c-0.37-1.39-0.78-2.78-1.22-4.16c-0.43-1.35-0.93-2.8-1.4-3.99l-0.13-0.35l-0.07-0.27
		c-1.46-5.86-2.64-11.59-3.55-17.55c-0.46-2.97-0.8-5.99-0.99-9.12c-0.03-0.79-0.08-1.57-0.09-2.38l0.03-2.46
		c0.06-0.86,0.14-1.75,0.22-2.62c0.15-0.92,0.38-1.99,0.59-2.84c1.61-5.64,3.55-11.74,7.05-17.35c1.74-2.8,3.88-5.46,6.41-7.75
		c2.53-2.29,5.44-4.2,8.52-5.61c4.88-2.23,9.7-5.14,14.34-8.26c4.64-3.13,9.11-6.54,13.21-10.21c2.04-1.83,3.96-3.75,5.67-5.71
		c0.83-0.98,1.6-1.98,2.26-2.96c0.65-0.97,1.14-1.94,1.39-2.68c0.03-0.06,0.09-0.28,0.14-0.44l0.15-0.5l0.31-1l0.58-2.01
		c0.37-1.34,0.72-2.69,1.04-4.03c0.32-1.35,0.62-2.69,0.87-4.04c0.13-0.67,0.25-1.34,0.36-2c0.1-0.63,0.21-1.38,0.26-1.85l4.34,5.46
		c-13.79-1.64-27.84-2.77-41.81-3.54c-13.99-0.75-27.99-1.1-41.94-0.83c-6.98,0.14-13.95,0.4-20.88,0.92
		c-6.93,0.52-13.84,1.16-20.66,2.23c-1.71,0.22-3.38,0.65-5.08,0.93c-1.7,0.28-3.41,0.44-5.11,0.68c-3.42,0.39-6.8,0.96-10.18,1.58
		l-5.02,1.09l-4.94,1.35l-4.85,1.61c-1.57,0.62-3.13,1.3-4.71,1.95l0.86-0.9c-0.18,0.28-0.44,0.73-0.64,1.13
		c-0.22,0.41-0.41,0.85-0.61,1.28c-0.37,0.88-0.71,1.78-1,2.71c-0.57,1.85-0.97,3.78-1.15,5.75c-0.18,1.96-0.2,3.98,0.06,5.97
		c0.2,2.01,0.72,3.99,1.32,5.97c-0.98-1.81-1.92-3.69-2.51-5.71c-0.67-2-1.05-4.1-1.26-6.23c-0.22-2.14-0.16-4.31,0.12-6.47
		c0.14-1.08,0.34-2.16,0.59-3.23c0.14-0.54,0.27-1.07,0.44-1.61c0.17-0.55,0.33-1.04,0.6-1.68l0.18-0.42l0.69-0.48
		c6.06-4.22,12.8-7.3,19.65-9.77c3.43-1.21,6.9-2.37,10.4-3.33c3.47-1.15,7.07-1.6,10.65-2.06c7.14-1.07,14.28-1.76,21.42-2.29
		c7.14-0.54,14.28-0.8,21.4-0.94c14.26-0.28,28.48,0.08,42.67,0.84c14.21,0.79,28.3,1.91,42.53,3.6l4.89,0.58l-0.54,4.88
		c-0.11,0.97-0.22,1.66-0.34,2.46c-0.12,0.77-0.26,1.53-0.41,2.28c-0.29,1.51-0.62,2.99-0.97,4.47c-0.35,1.47-0.73,2.94-1.14,4.39
		l-0.62,2.17l-0.33,1.08l-0.16,0.54c-0.06,0.19-0.09,0.32-0.19,0.6c-0.68,2.01-1.59,3.61-2.54,5.05c-0.96,1.44-1.97,2.73-3.01,3.96
		c-2.1,2.42-4.3,4.6-6.57,6.64c-4.55,4.08-9.33,7.7-14.3,11.07c-4.99,3.34-10.12,6.47-15.8,9.07c-4.39,2-7.95,5.27-10.58,9.54
		c-2.67,4.27-4.37,9.33-5.92,14.82c-0.49,1.65-0.54,4.37-0.37,6.99c0.16,2.66,0.47,5.41,0.9,8.17c0.84,5.51,2.01,11.15,3.35,16.55
		l-0.2-0.62c0.64,1.65,1.14,3.1,1.64,4.66c0.49,1.53,0.95,3.08,1.36,4.64c0.83,3.12,1.52,6.3,1.98,9.57
		c0.46,3.28,0.69,6.66,0.45,10.2c-0.15,1.78-0.38,3.58-0.87,5.43c-0.5,1.85-1.21,3.72-2.27,5.53l-0.88,1.33
		c-0.31,0.43-0.67,0.84-1.02,1.26c-0.33,0.42-0.74,0.79-1.14,1.17l-0.6,0.56c-0.2,0.18-0.37,0.29-0.56,0.44l-2.23,1.64l-2.35,1.37
		c-3.19,1.69-6.53,2.82-9.87,3.58c-3.35,0.76-6.69,1.11-10.02,1.22c-1.66,0.04-3.32,0.04-4.98,0c-0.83-0.04-1.66-0.05-2.5-0.11
		c-0.86-0.05-1.63-0.11-2.64-0.26l0.54,0.06c-0.54-0.04-0.85-0.07-1.26-0.11c-0.38-0.04-0.75-0.11-1.12-0.17
		c-0.74-0.12-1.47-0.3-2.19-0.49c-1.45-0.4-2.88-0.9-4.3-1.53c-1.42-0.63-2.84-1.39-4.21-2.38c-1.36-0.98-2.69-2.21-3.75-3.76
		c-1.07-1.53-1.82-3.39-2.07-5.23l-0.09-0.69l-0.03-0.53l-0.05-1.05c-0.03-0.7-0.03-1.41-0.03-2.11c0.04-2.82,0.36-5.68,1.04-8.35
		c0.65-2.68,1.51-5.18,2.37-7.63c0.85-2.43,1.78-4.9,2.52-7.25c0.75-2.37,1.29-4.82,1.51-7.33c0.12-1.25,0.16-2.52,0.11-3.79
		C132.2,189.49,132.08,188.21,131.78,186.95z"/>
</g>
<circle class="st1" cx="153.24" cy="144.1" r="122.65"/>
</svg>
