<?xml version="1.0" encoding="utf-8"?>
<!-- Generator: Adobe Illustrator 25.2.3, SVG Export Plug-In . SVG Version: 6.00 Build 0)  -->
<svg version="1.1" xmlns="http://www.w3.org/2000/svg" xmlns:xlink="http://www.w3.org/1999/xlink" x="0px" y="0px"
	 viewBox="0 0 841.89 595.28" style="enable-background:new 0 0 841.89 595.28;" xml:space="preserve">
<style type="text/css">
	.st0{fill:#EA5254;}
	.st1{fill:none;stroke:#EA5254;stroke-width:19;stroke-miterlimit:10;}
	.st2{fill:none;}
	.st3{font-family:'zArista';}
	.st4{font-size:207.7059px;}
	.st5{fill:#447C73;}
	.st6{font-family:'JosefinSans-SemiBold';}
	.st7{font-size:50px;}
</style>
<g id="Layer_1">
	<g>
		<path class="st0" d="M393.78,289.98c1.4,2.97,2.12,6.28,2.46,9.61c0.36,3.33,0.32,6.74-0.08,10.11c-0.22,1.71-0.48,3.33-0.75,4.94
			l-0.8,4.83c-0.52,3.2-1,6.36-1.17,9.4c-0.19,3.04-0.07,5.96,0.37,8.87c0.12,0.73,0.25,1.46,0.39,2.19l0.24,1.09l0.12,0.54
			l0.12,0.32c0.3,0.84,0.75,1.49,1.39,2.1c1.22,1.22,3.37,2.24,5.86,2.88c1.24,0.33,2.57,0.55,3.91,0.71
			c0.67,0.1,1.35,0.14,2.02,0.23l1,0.1l0.83,0.07l0.49,0.04l0.22,0.03l0.52,0.08l0.61,0.09l1.28,0.17c0.86,0.11,1.74,0.19,2.62,0.26
			c0.88,0.07,1.76,0.08,2.65,0.11c0.88-0.02,1.77,0,2.64-0.04c3.52-0.12,7-0.49,10.31-1.24c3.3-0.75,6.43-1.84,9.22-3.31l2.03-1.17
			l1.84-1.36c0.14-0.11,0.34-0.23,0.44-0.33l0.29-0.28c0.19-0.19,0.41-0.35,0.57-0.58c0.17-0.22,0.37-0.41,0.53-0.65
			c0.15-0.25,0.32-0.49,0.48-0.73c0.6-1.04,1.1-2.28,1.48-3.67c0.37-1.39,0.58-2.95,0.72-4.54c0.22-3.23,0.01-6.7-0.48-10.21
			c-0.49-3.51-1.25-7.06-2.19-10.58c-0.47-1.76-0.99-3.52-1.55-5.26c-0.28-0.87-0.57-1.74-0.87-2.59c-0.29-0.83-0.63-1.75-0.9-2.45
			l-0.17-0.44l-0.09-0.36c-1.84-7.42-3.34-14.68-4.5-22.23c-0.58-3.76-1.02-7.6-1.26-11.56c-0.04-1.01-0.1-1.99-0.12-3.02l0.04-3.13
			c0.07-1.1,0.18-2.22,0.29-3.33c0.19-1.17,0.48-2.54,0.75-3.62c2.04-7.15,4.5-14.88,8.94-22c2.21-3.55,4.92-6.93,8.14-9.84
			c3.21-2.91,6.91-5.34,10.84-7.13c6.17-2.81,12.26-6.5,18.13-10.44c5.86-3.96,11.53-8.27,16.7-12.91c2.58-2.32,5.01-4.74,7.16-7.22
			c1.05-1.24,2.02-2.5,2.84-3.73c0.82-1.22,1.44-2.44,1.74-3.36c0.04-0.08,0.12-0.36,0.18-0.55l0.19-0.63l0.39-1.27l0.73-2.54
			c0.47-1.7,0.91-3.4,1.32-5.1c0.4-1.7,0.78-3.41,1.1-5.1c0.16-0.85,0.32-1.69,0.45-2.53l0.19-1.24l0.14-1.09l5.65,7.1
			c-8.67-1.05-17.57-1.91-26.38-2.65c-8.84-0.74-17.68-1.35-26.54-1.83c-8.85-0.49-17.71-0.82-26.56-1
			c-8.85-0.19-17.7-0.23-26.53-0.05c-8.83,0.18-17.65,0.5-26.42,1.16c-8.77,0.66-17.52,1.46-26.14,2.83
			c-2.17,0.28-4.28,0.83-6.42,1.19c-1.07,0.19-2.15,0.33-3.23,0.44l-3.23,0.4c-4.33,0.48-8.61,1.2-12.88,1.97l-6.35,1.36l-6.25,1.69
			l-6.13,2.03c-1.99,0.78-3.96,1.63-5.96,2.45l1.12-1.17c-0.23,0.34-0.56,0.91-0.81,1.42c-0.28,0.52-0.52,1.07-0.77,1.62
			c-0.47,1.11-0.9,2.25-1.27,3.42c-0.73,2.34-1.24,4.78-1.48,7.26c-0.24,2.48-0.27,5.03,0.06,7.56c0.25,2.55,0.9,5.05,1.65,7.56
			c-0.58-1.16-1.27-2.29-1.79-3.5c-0.51-1.21-1.05-2.43-1.41-3.72c-0.85-2.53-1.35-5.19-1.61-7.9c-0.28-2.71-0.22-5.46,0.14-8.2
			c0.17-1.37,0.42-2.74,0.74-4.1c0.17-0.68,0.34-1.36,0.56-2.05c0.21-0.7,0.42-1.32,0.76-2.14l0.23-0.54l0.89-0.63
			c7.66-5.37,16.2-9.29,24.88-12.44c4.35-1.54,8.74-3.02,13.17-4.25c4.4-1.47,8.96-2.04,13.49-2.62c9.04-1.36,18.09-2.23,27.13-2.9
			c9.04-0.68,18.08-1.02,27.11-1.2c9.03-0.19,18.04-0.14,27.05,0.05c9.01,0.19,18,0.52,26.99,1.02c8.98,0.49,17.96,1.11,26.92,1.85
			c8.98,0.76,17.87,1.61,26.93,2.71l6.33,0.77l-0.68,6.33c-0.07,0.68-0.14,1.11-0.21,1.64l-0.23,1.48c-0.16,0.98-0.33,1.94-0.52,2.9
			c-0.37,1.91-0.78,3.79-1.23,5.66c-0.45,1.87-0.93,3.72-1.44,5.57l-0.79,2.75l-0.42,1.37l-0.21,0.68
			c-0.08,0.24-0.12,0.41-0.25,0.76c-0.87,2.57-2.03,4.6-3.23,6.44c-1.22,1.83-2.5,3.47-3.82,5.03c-2.66,3.07-5.45,5.84-8.33,8.43
			c-5.77,5.17-11.82,9.76-18.12,14.03c-6.32,4.24-12.83,8.2-20.03,11.5c-5.52,2.52-10,6.63-13.32,12.01
			c-3.37,5.38-5.51,11.78-7.48,18.72c-0.61,2.05-0.67,5.48-0.46,8.79c0.21,3.36,0.59,6.84,1.13,10.33
			c1.07,6.96,2.54,14.11,4.24,20.94l-0.26-0.8c0.43,1.1,0.76,2,1.11,3c0.34,0.97,0.66,1.94,0.98,2.91c0.62,1.94,1.2,3.9,1.73,5.88
			c1.06,3.95,1.93,7.98,2.51,12.14c0.58,4.16,0.88,8.45,0.57,12.95c-0.19,2.26-0.49,4.55-1.11,6.91c-0.63,2.35-1.54,4.74-2.9,7.04
			l-1.12,1.69c-0.39,0.55-0.86,1.07-1.3,1.6c-0.43,0.54-0.95,1.01-1.46,1.49l-0.77,0.71c-0.26,0.23-0.47,0.37-0.71,0.55l-2.84,2.08
			c-0.99,0.59-1.99,1.17-2.99,1.74c-4.05,2.14-8.3,3.59-12.55,4.55c-4.25,0.96-8.5,1.4-12.71,1.55c-2.11,0.06-4.21,0.04-6.32-0.01
			c-1.05-0.04-2.11-0.06-3.17-0.13c-0.53-0.03-1.07-0.07-1.61-0.12l-0.83-0.09c-0.28-0.03-0.55-0.06-0.92-0.12l0.71,0.08l-0.86-0.07
			l-0.74-0.08c-0.48-0.06-0.96-0.14-1.43-0.22c-0.94-0.15-1.86-0.38-2.78-0.62c-1.84-0.51-3.66-1.14-5.47-1.94
			c-1.81-0.8-3.62-1.76-5.37-3.03c-1.74-1.25-3.43-2.82-4.79-4.81c-0.69-0.97-1.25-2.07-1.72-3.19c-0.43-1.14-0.76-2.32-0.91-3.5
			l-0.11-0.88l-0.03-0.67l-0.06-1.33c-0.03-0.89-0.03-1.79-0.03-2.68c0.07-3.58,0.49-7.21,1.36-10.59c0.83-3.4,1.93-6.56,3.03-9.67
			l1.65-4.62c0.55-1.54,1.09-3.07,1.56-4.55c0.95-2.99,1.65-6.1,1.94-9.27c0.16-1.59,0.22-3.19,0.15-4.8
			C394.3,293.19,394.16,291.57,393.78,289.98z"/>
	</g>
	<circle class="st1" cx="420.94" cy="235.73" r="155.27"/>
	<g>
		<rect x="103.91" y="414.51" class="st2" width="634.07" height="227.12"/>
		<text transform="matrix(1 0 0 1 177.8296 546.8203)" class="st0 st3 st4">TABBO</text>
	</g>
	<text transform="matrix(1 0 0 1 130.5228 414.9404)" class="st5 st6 st7"> </text>
</g>
<g id="Layer_2">
	<path class="st0" d="M386.24,268.36"/>
</g>
</svg>
